<svg width="69" height="16" viewBox="0 0 69 16" fill="none" xmlns="http://www.w3.org/2000/svg">
<path d="M3.18123 15.658C2.7679 15.658 2.37456 15.5513 2.00123 15.338C1.6279 15.1113 1.3279 14.7647 1.10123 14.298C0.874564 13.8313 0.76123 13.2313 0.76123 12.498C0.76123 11.5913 0.934564 10.738 1.28123 9.93799C1.6279 9.13799 2.08123 8.43132 2.64123 7.81799C3.20123 7.20465 3.81456 6.72465 4.48123 6.37799C5.16123 6.01799 5.8279 5.83799 6.48123 5.83799C6.73456 5.83799 7.02123 5.87799 7.34123 5.95799C7.66123 6.02465 7.99456 6.14465 8.34123 6.31799C8.62123 6.27799 8.9079 6.23799 9.20123 6.19799C9.5079 6.15799 9.82123 6.11132 10.1412 6.05799L10.2012 6.13799C10.0412 6.69799 9.90123 7.23132 9.78123 7.73799C9.66123 8.23132 9.54123 8.73799 9.42123 9.25799L8.50123 13.218C8.4879 13.3113 8.46123 13.4313 8.42123 13.578C8.38123 13.7247 8.36123 13.8647 8.36123 13.998C8.36123 14.118 8.3879 14.218 8.44123 14.298C8.49456 14.378 8.5879 14.418 8.72123 14.418C8.9479 14.418 9.23456 14.298 9.58123 14.058C9.9279 13.818 10.2412 13.5247 10.5212 13.178C10.6946 13.298 10.8479 13.4313 10.9812 13.578C10.5279 14.178 10.0412 14.678 9.52123 15.078C9.00123 15.478 8.41456 15.678 7.76123 15.678C7.2679 15.678 6.91456 15.558 6.70123 15.318C6.4879 15.0647 6.38123 14.7513 6.38123 14.378C6.38123 14.018 6.45456 13.6047 6.60123 13.138H6.50123C6.0079 13.9913 5.47456 14.6247 4.90123 15.038C4.34123 15.4513 3.7679 15.658 3.18123 15.658ZM7.82123 7.57799C7.54123 7.32465 7.2479 7.12465 6.94123 6.97799C6.63456 6.81799 6.32123 6.73799 6.00123 6.73799C5.5079 6.73799 5.0679 6.91799 4.68123 7.27799C4.29456 7.63799 3.9679 8.10465 3.70123 8.67799C3.43456 9.23799 3.23456 9.84465 3.10123 10.498C2.9679 11.138 2.90123 11.7513 2.90123 12.338C2.90123 13.138 3.0079 13.6847 3.22123 13.978C3.43456 14.258 3.6879 14.398 3.98123 14.398C4.3279 14.398 4.7079 14.2313 5.12123 13.898C5.5479 13.5513 5.96123 13.0047 6.36123 12.258C6.77456 11.498 7.1279 10.498 7.42123 9.25799L7.82123 7.57799ZM21.2408 15.498C21.0008 15.498 20.6874 15.4913 20.3008 15.478C19.9274 15.4647 19.5408 15.4513 19.1408 15.438C18.7408 15.4247 18.3741 15.418 18.0408 15.418C17.8008 15.418 17.4874 15.4247 17.1008 15.438C16.7141 15.438 16.3274 15.438 15.9408 15.438C15.5674 15.4513 15.2674 15.458 15.0408 15.458C15.0408 15.3647 15.0474 15.258 15.0608 15.138C15.0741 15.018 15.1008 14.9113 15.1408 14.818C15.7141 14.7513 16.1274 14.6913 16.3808 14.638C16.6474 14.5847 16.8341 14.4647 16.9408 14.278C17.0474 14.078 17.1408 13.7513 17.2208 13.298L19.0608 3.81799C19.1141 3.56465 19.1541 3.35799 19.1808 3.19799C19.2074 3.03799 19.2208 2.89799 19.2208 2.77799C19.2208 2.47132 19.1008 2.29132 18.8608 2.23799C18.6341 2.17132 18.1741 2.11132 17.4808 2.05799C17.5074 1.84465 17.5474 1.63132 17.6008 1.41799C17.8541 1.41799 18.1608 1.42465 18.5208 1.43799C18.8808 1.43799 19.2408 1.44465 19.6008 1.45799C19.9608 1.45799 20.2608 1.45799 20.5008 1.45799C20.6741 1.45799 20.9274 1.45799 21.2608 1.45799C21.6074 1.44465 21.9408 1.43799 22.2608 1.43799C22.5808 1.43799 22.8074 1.43799 22.9408 1.43799C23.4874 1.43799 24.0208 1.48465 24.5408 1.57799C25.0741 1.67132 25.5474 1.83132 25.9608 2.05799C26.3874 2.27132 26.7274 2.57799 26.9808 2.97799C27.2341 3.36465 27.3608 3.86465 27.3608 4.47799C27.3608 5.23799 27.1741 5.86465 26.8008 6.35799C26.4274 6.83799 25.9541 7.21799 25.3808 7.49799C24.8074 7.76465 24.2141 7.97132 23.6008 8.11799V8.15799C24.1341 8.22465 24.6474 8.37799 25.1408 8.61799C25.6474 8.85799 26.0608 9.21132 26.3808 9.67799C26.7141 10.1447 26.8808 10.758 26.8808 11.518C26.8808 12.2913 26.7074 12.938 26.3608 13.458C26.0141 13.9647 25.5608 14.3713 25.0008 14.678C24.4408 14.9713 23.8274 15.1847 23.1608 15.318C22.5074 15.438 21.8674 15.498 21.2408 15.498ZM20.3208 8.67799L19.2008 14.498C19.5074 14.5647 19.8541 14.618 20.2408 14.658C20.6274 14.6847 20.9474 14.698 21.2008 14.698C22.2541 14.698 23.0674 14.4047 23.6408 13.818C24.2274 13.218 24.5208 12.4113 24.5208 11.398C24.5208 10.6913 24.3808 10.138 24.1008 9.73799C23.8341 9.33799 23.4541 9.05799 22.9608 8.89799C22.4808 8.72465 21.9208 8.63799 21.2808 8.63799C21.1874 8.63799 21.0474 8.63799 20.8608 8.63799C20.6741 8.63799 20.4941 8.65132 20.3208 8.67799ZM21.5608 2.27799L20.4808 7.81799C20.6674 7.83132 20.8608 7.83799 21.0608 7.83799C21.2608 7.83799 21.4141 7.83799 21.5208 7.83799C22.6808 7.83799 23.5674 7.54465 24.1808 6.95799C24.7941 6.37132 25.1008 5.59799 25.1008 4.63799C25.1008 3.73132 24.8541 3.11132 24.3608 2.77799C23.8674 2.43132 23.2608 2.25799 22.5408 2.25799C22.4474 2.25799 22.3141 2.25799 22.1408 2.25799C21.9674 2.25799 21.7741 2.26465 21.5608 2.27799ZM37.6965 9.75799C37.6965 10.438 37.5832 11.1247 37.3565 11.818C37.1432 12.5113 36.8165 13.1513 36.3765 13.738C35.9365 14.3113 35.3899 14.778 34.7365 15.138C34.0832 15.498 33.3299 15.678 32.4765 15.678C31.7565 15.678 31.1499 15.5513 30.6565 15.298C30.1765 15.0447 29.7899 14.718 29.4965 14.318C29.2032 13.918 28.9899 13.4847 28.8565 13.018C28.7365 12.538 28.6765 12.078 28.6765 11.638C28.6765 11.0647 28.7765 10.4447 28.9765 9.77799C29.1899 9.11132 29.5099 8.47799 29.9365 7.87799C30.3632 7.27799 30.9099 6.79132 31.5765 6.41799C32.2432 6.03132 33.0365 5.83799 33.9565 5.83799C34.8232 5.83799 35.5299 6.01799 36.0765 6.37799C36.6365 6.72465 37.0432 7.19799 37.2965 7.79799C37.5632 8.38465 37.6965 9.03799 37.6965 9.75799ZM35.5765 9.43799C35.5765 8.61132 35.4432 7.93132 35.1765 7.39799C34.9232 6.85132 34.4899 6.57799 33.8765 6.57799C33.3965 6.57799 32.9632 6.73799 32.5765 7.05799C32.2032 7.37799 31.8832 7.80465 31.6165 8.33799C31.3499 8.87132 31.1432 9.45799 30.9965 10.098C30.8632 10.7247 30.7965 11.358 30.7965 11.998C30.7965 12.8247 30.9299 13.5247 31.1965 14.098C31.4765 14.658 31.9299 14.938 32.5565 14.938C33.0499 14.938 33.4832 14.7713 33.8565 14.438C34.2299 14.1047 34.5432 13.6647 34.7965 13.118C35.0499 12.5713 35.2432 11.978 35.3765 11.338C35.5099 10.6847 35.5765 10.0513 35.5765 9.43799ZM41.4234 15.658C41.0101 15.658 40.6168 15.5513 40.2434 15.338C39.8701 15.1113 39.5701 14.7647 39.3434 14.298C39.1168 13.8313 39.0034 13.2313 39.0034 12.498C39.0034 11.5913 39.1768 10.738 39.5234 9.93799C39.8701 9.13799 40.3234 8.43132 40.8834 7.81799C41.4434 7.20465 42.0568 6.72465 42.7234 6.37799C43.4034 6.01799 44.0701 5.83799 44.7234 5.83799C44.9768 5.83799 45.2634 5.87799 45.5834 5.95799C45.9034 6.02465 46.2368 6.14465 46.5834 6.31799C46.8634 6.27799 47.1501 6.23799 47.4434 6.19799C47.7501 6.15799 48.0634 6.11132 48.3834 6.05799L48.4434 6.13799C48.2834 6.69799 48.1434 7.23132 48.0234 7.73799C47.9034 8.23132 47.7834 8.73799 47.6634 9.25799L46.7434 13.218C46.7301 13.3113 46.7034 13.4313 46.6634 13.578C46.6234 13.7247 46.6034 13.8647 46.6034 13.998C46.6034 14.118 46.6301 14.218 46.6834 14.298C46.7368 14.378 46.8301 14.418 46.9634 14.418C47.1901 14.418 47.4768 14.298 47.8234 14.058C48.1701 13.818 48.4834 13.5247 48.7634 13.178C48.9368 13.298 49.0901 13.4313 49.2234 13.578C48.7701 14.178 48.2834 14.678 47.7634 15.078C47.2434 15.478 46.6568 15.678 46.0034 15.678C45.5101 15.678 45.1568 15.558 44.9434 15.318C44.7301 15.0647 44.6234 14.7513 44.6234 14.378C44.6234 14.018 44.6968 13.6047 44.8434 13.138H44.7434C44.2501 13.9913 43.7168 14.6247 43.1434 15.038C42.5834 15.4513 42.0101 15.658 41.4234 15.658ZM46.0634 7.57799C45.7834 7.32465 45.4901 7.12465 45.1834 6.97799C44.8768 6.81799 44.5634 6.73799 44.2434 6.73799C43.7501 6.73799 43.3101 6.91799 42.9234 7.27799C42.5368 7.63799 42.2101 8.10465 41.9434 8.67799C41.6768 9.23799 41.4768 9.84465 41.3434 10.498C41.2101 11.138 41.1434 11.7513 41.1434 12.338C41.1434 13.138 41.2501 13.6847 41.4634 13.978C41.6768 14.258 41.9301 14.398 42.2234 14.398C42.5701 14.398 42.9501 14.2313 43.3634 13.898C43.7901 13.5513 44.2034 13.0047 44.6034 12.258C45.0168 11.498 45.3701 10.498 45.6634 9.25799L46.0634 7.57799ZM52.399 15.438H50.399L52.039 8.33799C52.1324 7.95132 52.179 7.69799 52.179 7.57799C52.179 7.25799 52.059 7.09799 51.819 7.09799C51.6324 7.09799 51.3857 7.20465 51.079 7.41799C50.7857 7.61799 50.4924 7.87132 50.199 8.17799C50.1057 8.11132 50.019 8.04465 49.939 7.97799C49.8724 7.91132 49.8057 7.83799 49.739 7.75799C50.2724 7.13132 50.8257 6.66465 51.399 6.35799C51.9724 6.03799 52.5057 5.87799 52.999 5.87799C53.439 5.87799 53.7324 5.98465 53.879 6.19799C54.0257 6.39799 54.099 6.63799 54.099 6.91799C54.099 7.09132 54.0724 7.29799 54.019 7.53799C53.9657 7.76465 53.859 8.15132 53.699 8.69799L53.059 10.758L53.179 10.778C53.8724 9.11132 54.5524 7.87132 55.219 7.05799C55.8857 6.24465 56.6057 5.83799 57.379 5.83799C57.8457 5.83799 58.1724 5.95799 58.359 6.19799C58.559 6.43799 58.659 6.69799 58.659 6.97799C58.659 7.31132 58.5524 7.57132 58.339 7.75799C58.1257 7.94465 57.8724 8.03799 57.579 8.03799C57.3657 8.03799 57.139 7.98465 56.899 7.87799C56.659 7.75799 56.459 7.57132 56.299 7.31799C55.8857 7.58465 55.439 8.07132 54.959 8.77799C54.479 9.47132 54.0124 10.378 53.559 11.498C53.119 12.6047 52.7324 13.918 52.399 15.438ZM64.1464 13.098H64.0464C63.4197 14.0713 62.7931 14.7447 62.1664 15.118C61.5397 15.478 60.9664 15.658 60.4464 15.658C59.8064 15.658 59.2397 15.4047 58.7464 14.898C58.2664 14.3913 58.0264 13.5913 58.0264 12.498C58.0264 11.6313 58.1864 10.798 58.5064 9.99799C58.8397 9.19799 59.2797 8.48465 59.8264 7.85799C60.3864 7.23132 61.0064 6.73799 61.6864 6.37799C62.3664 6.01799 63.0531 5.83799 63.7464 5.83799C64.0131 5.83799 64.2864 5.87132 64.5664 5.93799C64.8597 5.99132 65.1464 6.08465 65.4264 6.21799L66.0664 3.09799C66.1064 2.91132 66.1397 2.73799 66.1664 2.57799C66.1931 2.41799 66.2064 2.29132 66.2064 2.19799C66.2064 1.94465 66.0864 1.79132 65.8464 1.73799C65.6197 1.67132 65.1864 1.63132 64.5464 1.61799C64.5331 1.52465 64.5197 1.43799 64.5064 1.35799C64.5064 1.26465 64.5131 1.17132 64.5264 1.07799C65.2464 1.02465 65.9464 0.951321 66.6264 0.857988C67.3197 0.751321 67.9131 0.597987 68.4064 0.397988L68.6664 0.537987C68.5331 1.03132 68.3931 1.57132 68.2464 2.15799C68.1131 2.74465 67.9731 3.40465 67.8264 4.13799L65.9664 13.218C65.9531 13.3113 65.9264 13.438 65.8864 13.598C65.8597 13.7447 65.8464 13.878 65.8464 13.998C65.8464 14.2913 65.9664 14.438 66.2064 14.438C66.4331 14.438 66.7197 14.318 67.0664 14.078C67.4131 13.838 67.7264 13.5447 68.0064 13.198C68.1797 13.318 68.3331 13.4513 68.4664 13.598C68.0131 14.198 67.5197 14.698 66.9864 15.098C66.4664 15.498 65.8864 15.698 65.2464 15.698C64.7664 15.698 64.4264 15.5847 64.2264 15.358C64.0264 15.118 63.9264 14.8047 63.9264 14.418C63.9264 14.2313 63.9464 14.038 63.9864 13.838C64.0264 13.638 64.0797 13.3913 64.1464 13.098ZM64.5464 10.458L65.1264 7.59799C64.7397 7.26465 64.3797 7.03799 64.0464 6.91799C63.7264 6.79799 63.4531 6.73799 63.2264 6.73799C62.7331 6.73799 62.2931 6.91799 61.9064 7.27799C61.5197 7.63799 61.1997 8.10465 60.9464 8.67799C60.6931 9.23799 60.4997 9.84465 60.3664 10.498C60.2331 11.1513 60.1664 11.7713 60.1664 12.358C60.1664 13.118 60.2664 13.6513 60.4664 13.958C60.6797 14.2513 60.9597 14.398 61.3064 14.398C61.7464 14.398 62.1864 14.2113 62.6264 13.838C63.0664 13.4647 63.4597 12.978 63.8064 12.378C64.1531 11.778 64.3997 11.138 64.5464 10.458Z" fill="white"/>
</svg>
